# xmcd CD database file
#
# Track frame offsets:
#	150
#	25588
#	59065
#	94077
#	121918
#	143982
#	187949
#	204226
#	233623
#	257489
#
# Disc length: 3842 seconds
#
# Revision: 1
# Processed by: cddbd v1.5.2PL0 Copyright (c) Steve Scherf et al.
# Submitted via: CDex 1.70beta2
#
DISCID=7e0f000a
DTITLE=Tyler Hornby - Shadows of a Brighter Day
DYEAR=2004
DGENRE=Jazz
TTITLE0=Fruitful
TTITLE1=Dig in Buddy
TTITLE2=Leoma's Dance
TTITLE3=Mark's for the Groove
TTITLE4=Six Months 'till Forever
TTITLE5=Hip Triplet
TTITLE6=7-2-3 Drum Solo
TTITLE7=Zonin'
TTITLE8=Shadows of a Brighter Day
TTITLE9=Reminiscence
EXTD=YEAR: 2004
EXTT0=
EXTT1=
EXTT2=
EXTT3=
EXTT4=
EXTT5=
EXTT6=
EXTT7=
EXTT8=
EXTT9=
PLAYORDER=
